<svg id="Layer_5" enable-background="new 0 0 64 64" height="512" viewBox="0 0 64 64" width="512" xmlns="http://www.w3.org/2000/svg"><path d="m62 37.152c-.337-.091-.669-.151-1.001-.151l-7 .002c-2.205 0-3.999 1.795-3.999 4.001s1.794 4 4 4h1c1.103 0 2 .897 2 2s-.897 2-2 2h-10c-2.206 0-4 1.794-4 4s1.794 4 4 4h16c.332 0 .663-.06 1-.151z" fill="#f0bc5e"/><path d="m20.118 59h7.882c2.206 0 4-1.794 4-4s-1.794-4-4-4h-6.529c-.698 2.578-1.159 5.251-1.353 8z" fill="#f0bc5e"/><path d="m62 19c-6.325 0-12.401 1.352-18.081 3.992.445.528.858 1.072 1.249 1.627 4.996-2.256 10.309-3.477 15.832-3.607v39.988h-39.988c.13-5.523 1.35-10.836 3.607-15.832-.555-.391-1.099-.804-1.627-1.249-2.64 5.68-3.992 11.756-3.992 18.081v1h44v-44z"/><path d="m34 46 7.002.998-1.002-6.998 7 1-1-7 2.901.418-.016-.424c-.528-4.506-2.785-8.953-6.354-12.523-7.353-7.353-18.06-8.611-23.866-2.806-5.806 5.806-4.547 16.512 2.806 23.866 3.57 3.569 8.018 5.826 12.523 6.354l.417.01z" fill="#f0bc5e"/><path d="m29 27c-2.206 0-4-1.794-4-4h2c0 1.103.897 2 2 2s2-.897 2-2-.897-2-2-2v-2c2.206 0 4 1.794 4 4s-1.794 4-4 4z"/><path d="m23 35v-2c.551 0 1-.449 1-1s-.449-1-1-1-1 .449-1 1h-2c0-1.654 1.346-3 3-3s3 1.346 3 3-1.346 3-3 3z"/><path d="m37 39c-1.654 0-3-1.346-3-3h2c0 .551.449 1 1 1s1-.449 1-1-.449-1-1-1v-2c1.654 0 3 1.346 3 3s-1.346 3-3 3z"/><path d="m29 43c-1.654 0-3-1.346-3-3s1.346-3 3-3 3 1.346 3 3h-2c0-.551-.449-1-1-1s-1 .449-1 1 .449 1 1 1z"/><path d="m40 30c-1.654 0-3-1.346-3-3s1.346-3 3-3v2c-.551 0-1 .449-1 1s.449 1 1 1 1-.449 1-1h2c0 1.654-1.346 3-3 3z"/><path d="m34.003 53.147-1.18-8.325 7 .998-1.002-6.999 7 1-1-7.001 8.315 1.197-.285 1.98-5.672-.817 1 6.999-7-1 1.002 6.997-7.004-.998.806 5.689z"/><path d="m3 1.172h2v5.657h-2z" transform="matrix(.707 -.707 .707 .707 -1.657 4)"/><path d="m11.5 6.136h2v12.728h-2z" transform="matrix(.707 -.707 .707 .707 -5.178 12.5)"/><path d="m9.5 1.379h2v4.243h-2z" transform="matrix(.707 -.707 .707 .707 .601 8.45)"/><path d="m16.5 5.55h2v9.899h-2z" transform="matrix(.707 -.707 .707 .707 -2.299 15.45)"/><path d="m16.5 1.379h2v4.243h-2z" transform="matrix(.707 -.707 .707 .707 2.651 13.4)"/><path d="m22.5 5.964h2v7.071h-2z" transform="matrix(.707 -.707 .707 .707 .166 19.4)"/><path d="m2.5 8.379h2v4.243h-2z" transform="matrix(.707 -.707 .707 .707 -6.4 5.55)"/><path d="m9.5 12.55h2v9.899h-2z" transform="matrix(.707 -.707 .707 .707 -9.299 12.55)"/><path d="m2.5 15.379h2v4.243h-2z" transform="matrix(.707 -.707 .707 .707 -11.349 7.601)"/><path d="m8.5 19.964h2v7.071h-2z" transform="matrix(.707 -.707 .707 .707 -13.835 13.601)"/><path d="m57 31h2v2h-2z"/><path d="m59 29h-2v-3.664c-2.614.355-5.185.99-7.657 1.894l-.687-1.879c2.974-1.086 6.082-1.805 9.239-2.137l1.105-.115z"/><path d="m10 36h2v2h-2z"/><path d="m10 40h2v2h-2z"/><path d="m12 38h2v2h-2z"/><path d="m8 38h2v2h-2z"/><path d="m10 48h2v3h-2z"/><path d="m6.818 49.318h2v3h-2z" transform="matrix(.707 -.707 .707 .707 -33.644 20.413)"/><path d="m5 53h3v2h-3z"/><path d="m6.318 56.182h3v2h-3z" transform="matrix(.707 -.707 .707 .707 -38.144 22.276)"/><path d="m10 57h2v3h-2z"/><path d="m13.182 55.682h2v3h-2z" transform="matrix(.707 -.707 .707 .707 -36.28 26.776)"/><path d="m14 53h3v2h-3z"/><path d="m12.682 49.818h3v2h-3z" transform="matrix(.707 -.707 .707 .707 -31.78 24.912)"/><path d="m35 9h2v2h-2z"/><path d="m39 9h2v2h-2z"/><path d="m37 7h2v2h-2z"/><path d="m37 11h2v2h-2z"/><path d="m47 9h3v2h-3z"/><path d="m48.318 12.182h3v2h-3z" transform="matrix(.707 -.707 .707 .707 5.27 39.088)"/><path d="m52 13h2v3h-2z"/><path d="m55.182 11.682h2v3h-2z" transform="matrix(.707 -.707 .707 .707 7.134 43.588)"/><path d="m56 9h3v2h-3z"/><path d="m54.682 5.818h3v2h-3z" transform="matrix(.707 -.707 .707 .707 11.634 41.724)"/><path d="m52 4h2v3h-2z"/><path d="m48.818 5.318h2v3h-2z" transform="matrix(.707 -.707 .707 .707 9.77 37.224)"/></svg>